<mxfile host="app.diagrams.net" modified="2021-04-19T08:40:49.281Z" agent="5.0 (Windows NT 10.0; Win64; x64) AppleWebKit/537.36 (KHTML, like Gecko) Chrome/89.0.4389.128 Safari/537.36" etag="vaMCQbVvl27tgd_3XD0y" version="14.6.0" type="github">
  <diagram id="ezc8-7WFVYmerYpfHuuk" name="第 1 页">
    <mxGraphModel dx="782" dy="437" grid="1" gridSize="10" guides="1" tooltips="1" connect="1" arrows="1" fold="1" page="1" pageScale="1" pageWidth="2336" pageHeight="1654" math="0" shadow="0">
      <root>
        <mxCell id="0" />
        <mxCell id="1" parent="0" />
        <mxCell id="spjCbSuvfop2kZcB9_yR-12" value="" style="whiteSpace=wrap;html=1;aspect=fixed;" vertex="1" parent="1">
          <mxGeometry x="530" y="70" width="390" height="390" as="geometry" />
        </mxCell>
        <mxCell id="spjCbSuvfop2kZcB9_yR-10" value="" style="whiteSpace=wrap;html=1;aspect=fixed;" vertex="1" parent="1">
          <mxGeometry x="95" y="70" width="390" height="390" as="geometry" />
        </mxCell>
        <mxCell id="spjCbSuvfop2kZcB9_yR-6" style="edgeStyle=orthogonalEdgeStyle;rounded=0;orthogonalLoop=1;jettySize=auto;html=1;entryX=0.5;entryY=0;entryDx=0;entryDy=0;" edge="1" parent="1" source="spjCbSuvfop2kZcB9_yR-1" target="spjCbSuvfop2kZcB9_yR-2">
          <mxGeometry relative="1" as="geometry" />
        </mxCell>
        <mxCell id="spjCbSuvfop2kZcB9_yR-1" value="Python Program" style="rounded=1;whiteSpace=wrap;html=1;" vertex="1" parent="1">
          <mxGeometry x="230" y="90" width="120" height="60" as="geometry" />
        </mxCell>
        <mxCell id="spjCbSuvfop2kZcB9_yR-7" style="edgeStyle=orthogonalEdgeStyle;rounded=0;orthogonalLoop=1;jettySize=auto;html=1;entryX=0.5;entryY=0;entryDx=0;entryDy=0;" edge="1" parent="1" source="spjCbSuvfop2kZcB9_yR-2" target="spjCbSuvfop2kZcB9_yR-3">
          <mxGeometry relative="1" as="geometry" />
        </mxCell>
        <mxCell id="spjCbSuvfop2kZcB9_yR-2" value="Selenium" style="rounded=1;whiteSpace=wrap;html=1;" vertex="1" parent="1">
          <mxGeometry x="230" y="190" width="120" height="60" as="geometry" />
        </mxCell>
        <mxCell id="spjCbSuvfop2kZcB9_yR-8" style="edgeStyle=orthogonalEdgeStyle;rounded=0;orthogonalLoop=1;jettySize=auto;html=1;entryX=0.5;entryY=0;entryDx=0;entryDy=0;" edge="1" parent="1" source="spjCbSuvfop2kZcB9_yR-3" target="spjCbSuvfop2kZcB9_yR-4">
          <mxGeometry relative="1" as="geometry" />
        </mxCell>
        <mxCell id="spjCbSuvfop2kZcB9_yR-3" value="Edge WebDriver" style="rounded=1;whiteSpace=wrap;html=1;" vertex="1" parent="1">
          <mxGeometry x="230" y="290" width="120" height="60" as="geometry" />
        </mxCell>
        <mxCell id="spjCbSuvfop2kZcB9_yR-9" style="edgeStyle=orthogonalEdgeStyle;rounded=0;orthogonalLoop=1;jettySize=auto;html=1;startArrow=classic;startFill=1;" edge="1" parent="1" source="spjCbSuvfop2kZcB9_yR-4" target="spjCbSuvfop2kZcB9_yR-5">
          <mxGeometry relative="1" as="geometry" />
        </mxCell>
        <mxCell id="spjCbSuvfop2kZcB9_yR-4" value="Edge Browser" style="rounded=1;whiteSpace=wrap;html=1;" vertex="1" parent="1">
          <mxGeometry x="230" y="390" width="120" height="60" as="geometry" />
        </mxCell>
        <mxCell id="spjCbSuvfop2kZcB9_yR-5" value="SharePoint" style="rounded=1;whiteSpace=wrap;html=1;" vertex="1" parent="1">
          <mxGeometry x="620" y="390" width="120" height="60" as="geometry" />
        </mxCell>
        <mxCell id="spjCbSuvfop2kZcB9_yR-11" value="Local Device" style="text;html=1;strokeColor=none;fillColor=none;align=center;verticalAlign=middle;whiteSpace=wrap;rounded=0;" vertex="1" parent="1">
          <mxGeometry x="110" y="90" width="40" height="20" as="geometry" />
        </mxCell>
        <mxCell id="spjCbSuvfop2kZcB9_yR-13" value="Azure Cloud" style="text;html=1;strokeColor=none;fillColor=none;align=center;verticalAlign=middle;whiteSpace=wrap;rounded=0;" vertex="1" parent="1">
          <mxGeometry x="560" y="90" width="40" height="20" as="geometry" />
        </mxCell>
      </root>
    </mxGraphModel>
  </diagram>
</mxfile>
